<?xml version="1.0" standalone="no"?>
<!DOCTYPE svg PUBLIC "-//W3C//DTD SVG 20010904//EN"
 "http://www.w3.org/TR/2001/REC-SVG-20010904/DTD/svg10.dtd">
<svg version="1.0" xmlns="http://www.w3.org/2000/svg"
 width="260.000000pt" height="260.000000pt" viewBox="0 0 260.000000 260.000000"
 preserveAspectRatio="xMidYMid meet">
<metadata>
Created by potrace 1.14, written by Peter Selinger 2001-2017
</metadata>
<g transform="translate(0.000000,260.000000) scale(0.100000,-0.100000)"
fill="#000000" stroke="none">
<path d="M0 2237 c0 -248 3 -366 11 -374 8 -8 8 -13 0 -17 -6 -4 -11 -28 -10
-54 0 -26 3 -41 6 -34 2 6 12 12 20 12 11 0 14 8 11 34 -3 24 0 32 9 29 14 -6
16 -13 13 -59 -1 -18 3 -35 9 -38 11 -7 5 -59 -11 -93 -8 -17 -8 -26 2 -38 7
-8 14 -41 17 -72 2 -32 17 -93 33 -135 17 -43 30 -83 30 -90 0 -8 8 -25 17
-38 12 -17 19 -47 20 -95 5 -185 8 -199 38 -254 35 -63 112 -145 144 -154 17
-4 21 -2 17 9 -3 8 1 14 10 14 12 0 13 4 4 21 -16 29 -6 35 24 15 38 -24 43
-20 36 29 -4 25 -3 48 2 51 4 3 8 2 8 -3 0 -4 14 -16 31 -25 l31 -18 -7 30
c-4 16 -4 39 0 50 5 16 10 18 25 10 33 -18 42 -12 35 20 -10 44 4 57 26 23
l19 -28 0 40 c0 30 3 36 10 25 13 -20 13 -80 -1 -118 -9 -27 -14 -30 -29 -22
-10 5 -26 17 -35 26 -26 27 -28 10 -6 -70 12 -42 21 -79 21 -81 0 -3 -11 -3
-25 1 -28 7 -30 0 -10 -36 18 -32 18 -40 0 -40 -8 0 -15 -5 -15 -12 0 -7 -16
3 -35 22 -19 19 -35 29 -35 22 0 -8 -16 -11 -45 -9 -25 1 -46 -1 -47 -4 -2 -4
-22 -4 -46 1 -46 8 -63 -4 -46 -32 4 -7 -9 2 -29 19 -43 38 -93 46 -84 14 4
-17 1 -19 -29 -14 -25 4 -34 2 -34 -8 0 -11 -2 -11 -11 1 -8 11 -12 12 -16 2
-5 -13 -23 -7 -23 9 0 6 5 7 10 4 15 -10 12 11 -4 24 -11 9 -20 10 -35 1 -28
-14 -30 -103 -3 -133 16 -19 16 -20 0 -14 -17 6 -18 -12 -18 -288 l0 -295
1300 0 1300 0 0 34 c0 28 -5 36 -27 44 l-28 10 28 1 27 1 0 466 c0 319 -3 472
-11 486 -8 15 -8 19 0 14 17 -11 13 15 -6 36 -15 17 -15 18 3 18 29 1 -2 16
-51 25 -22 3 -47 12 -55 20 -8 7 -27 15 -41 18 -14 4 -44 25 -67 47 -24 22
-49 40 -56 40 -8 0 -20 7 -27 16 -12 15 -11 16 10 9 17 -5 22 -4 19 6 -3 8
-17 15 -32 17 -22 3 -27 8 -23 23 3 11 0 19 -6 18 -24 -3 -37 1 -37 12 0 5 4
8 9 5 5 -4 7 3 4 14 -7 26 8 26 30 0 18 -22 37 -26 37 -9 0 5 5 7 10 4 6 -3
24 4 41 16 19 13 27 24 20 28 -14 9 31 52 84 80 27 14 33 21 20 21 -11 0 -40
-14 -65 -30 -25 -16 -58 -30 -74 -30 -28 0 -29 1 -11 20 24 26 13 55 -18 45
-12 -4 -40 -8 -62 -10 -22 -1 -58 -7 -79 -13 -47 -14 -52 -11 -34 19 27 47 49
58 108 53 30 -3 84 -6 120 -8 93 -5 132 -16 138 -38 5 -21 51 -48 82 -48 20 0
20 2 20 560 l0 560 -820 0 c-631 0 -820 -3 -820 -12 0 -9 -3 -9 -12 0 -9 9
-99 12 -345 12 -289 0 -333 -2 -333 -15 0 -8 6 -15 13 -16 6 0 -6 -9 -28 -18
-22 -10 -46 -16 -53 -13 -7 2 -18 0 -25 -5 -6 -5 -24 -10 -39 -11 -22 -1 -28
3 -28 17 0 14 -8 21 -27 23 -26 3 -26 4 -9 21 17 16 15 17 -28 17 l-46 0 0
-363z m950 323 c0 -17 -31 -72 -37 -67 -8 8 17 77 28 77 5 0 9 -5 9 -10z m258
-155 c-3 -3 -9 2 -12 12 -6 14 -5 15 5 6 7 -7 10 -15 7 -18z m1344 0 c3 -13 1
-22 -3 -19 -9 5 -13 44 -5 44 2 0 6 -11 8 -25z m-639 0 c-3 -9 -8 -14 -10 -11
-3 3 -2 9 2 15 9 16 15 13 8 -4z m-1318 -15 c3 -5 1 -10 -4 -10 -6 0 -11 5
-11 10 0 6 2 10 4 10 3 0 8 -4 11 -10z m431 -117 c-7 -7 -26 7 -26 19 0 6 6 6
15 -2 9 -7 13 -15 11 -17z m-136 -94 c-11 -27 -20 -61 -20 -74 0 -36 -17 -31
-22 7 -4 21 3 47 20 80 32 61 47 52 22 -13z m-155 33 c-3 -3 -11 0 -18 7 -9
10 -8 11 6 5 10 -3 15 -9 12 -12z m1045 -69 c0 -5 -13 -16 -30 -25 -21 -12
-37 -14 -57 -8 -28 8 -26 10 12 15 11 2 31 8 45 13 32 14 30 13 30 5z m-207
-44 c21 0 21 -1 -2 -10 -27 -11 -64 -3 -55 12 3 6 13 8 21 5 8 -3 24 -6 36 -7z
m577 -3 c0 -2 -8 -10 -17 -17 -16 -13 -17 -12 -4 4 13 16 21 21 21 13z m-325
-26 c-3 -5 -11 -10 -16 -10 -6 0 -7 5 -4 10 3 6 11 10 16 10 6 0 7 -4 4 -10z
m260 1 c-26 -24 -90 -51 -118 -50 -18 1 -43 -1 -57 -5 -23 -6 -23 -6 -5 5 11
7 25 20 32 28 6 9 14 13 17 10 5 -4 63 4 136 20 2 1 0 -3 -5 -8z m359 -16
c-25 -19 -40 -19 -24 0 7 8 20 15 28 15 13 0 12 -3 -4 -15z m-1766 -62 c-11
-51 -28 -81 -28 -47 0 30 20 94 29 94 5 0 4 -21 -1 -47z m1662 -37 c-6 -9 -19
-12 -28 -8 -17 6 -14 7 37 21 2 1 -2 -5 -9 -13z m-240 -56 c0 -5 -2 -10 -4
-10 -3 0 -8 5 -11 10 -3 6 -1 10 4 10 6 0 11 -4 11 -10z m-210 -10 c0 -5 -5
-10 -11 -10 -5 0 -7 5 -4 10 3 6 8 10 11 10 2 0 4 -4 4 -10z m160 -20 c0 -5
-12 -10 -27 -10 -24 -1 -26 -3 -13 -13 8 -7 16 -19 18 -27 1 -10 -3 -8 -13 5
-13 16 -27 20 -68 18 -56 -1 -54 1 20 21 61 17 83 19 83 6z m60 0 c0 -5 -5
-10 -11 -10 -5 0 -7 5 -4 10 3 6 8 10 11 10 2 0 4 -4 4 -10z m-347 -14 c3 -8
-2 -16 -14 -19 -16 -4 -17 -2 -8 14 12 23 15 23 22 5z m-123 -76 c-24 -15 -36
-11 -14 4 10 8 21 12 24 10 2 -3 -2 -9 -10 -14z m-1484 -117 c4 -26 13 -63 21
-83 l14 -35 -20 25 c-22 27 -41 81 -41 118 0 41 19 23 26 -25z m2099 -29 c-60
-16 -73 -17 -59 -5 12 12 41 19 79 19 23 0 19 -3 -20 -14z m-175 -33 c0 -12
-20 -25 -27 -18 -7 7 6 27 18 27 5 0 9 -4 9 -9z m220 -124 c-19 -12 -43 -30
-52 -39 -19 -19 -50 -14 -42 6 7 19 76 56 104 56 24 0 23 -2 -10 -23z m-1662
-58 c-32 -21 -40 8 -10 37 16 17 17 17 20 -5 2 -13 -2 -28 -10 -32z m1450 -44
c-3 -3 -9 2 -12 12 -6 14 -5 15 5 6 7 -7 10 -15 7 -18z m-1200 -140 c13 -29
37 -163 31 -170 -3 -2 -23 2 -44 10 -22 8 -53 14 -68 15 l-28 0 29 -42 c53
-77 95 -175 61 -141 -9 9 -17 7 -32 -7 -26 -25 -76 -36 -90 -20 -9 10 -6 11
13 6 21 -6 22 -5 7 4 -9 6 -23 23 -31 38 -16 33 -30 212 -16 212 6 0 10 -4 10
-10 0 -5 5 -10 10 -10 6 0 10 11 10 25 0 25 19 36 21 13 1 -7 4 -2 8 12 4 14
13 24 19 23 7 -2 12 8 12 22 0 29 16 32 43 8 19 -17 20 -17 15 10 -7 34 5 35
20 2z m423 -32 c13 -16 12 -17 -3 -4 -17 13 -22 21 -14 21 2 0 10 -8 17 -17z
m250 -74 c32 -33 59 -62 59 -65 0 -12 -32 -1 -57 20 -27 23 -81 106 -68 106 3
0 33 -27 66 -61z m864 30 c4 -6 13 -8 20 -6 13 6 59 -39 89 -85 25 -38 8 -34
-34 8 -30 30 -35 32 -42 17 -6 -16 -7 -16 -7 1 -1 11 -13 33 -28 48 -15 15
-22 28 -15 28 6 0 14 -5 17 -11z m33 -177 c6 -18 -15 -14 -22 4 -4 10 -1 14 6
12 6 -2 14 -10 16 -16z m-1658 -172 c25 -35 18 -58 -9 -31 -21 21 -32 47 -24
55 9 9 10 8 33 -24z m1300 -50 c-8 -5 -24 -9 -35 -9 l-20 0 20 9 c11 5 27 9
35 9 13 1 13 0 0 -9z m-1884 -56 c18 -14 18 -14 -6 -3 -31 14 -36 19 -24 19 6
0 19 -7 30 -16z m-176 -34 c0 -5 -4 -10 -9 -10 -6 0 -13 5 -16 10 -3 6 1 10 9
10 9 0 16 -4 16 -10z m140 -18 c0 -8 -1 -13 -3 -11 -1 2 -9 12 -16 22 -12 15
-12 17 3 11 9 -3 16 -13 16 -22z m230 -32 c8 -5 11 -10 5 -10 -5 0 -17 5 -25
10 -8 5 -10 10 -5 10 6 0 17 -5 25 -10z m-325 -20 c3 -5 2 -10 -4 -10 -5 0
-13 5 -16 10 -3 6 -2 10 4 10 5 0 13 -4 16 -10z m2475 -300 c0 -13 -11 -13
-30 0 -12 8 -11 10 8 10 12 0 22 -4 22 -10z m-2499 -79 c-8 -5 -20 -7 -28 -4
-21 8 -15 13 15 13 20 0 23 -3 13 -9z m129 -15 c0 -2 -9 -6 -20 -9 -11 -3 -20
-1 -20 4 0 5 9 9 20 9 11 0 20 -2 20 -4z m79 -5 c25 -16 -6 -21 -35 -6 l-29
15 25 0 c14 0 31 -4 39 -9z m88 -17 c-3 -3 -12 -4 -19 -1 -8 3 -5 6 6 6 11 1
17 -2 13 -5z"/>
<path d="M2385 1385 c-19 -15 -19 -15 2 -37 13 -12 28 -18 37 -15 21 8 21 37
0 37 -14 0 -14 3 -4 15 17 20 -7 20 -35 0z"/>
<path d="M2378 1267 c5 -20 4 -20 -11 -8 -9 7 -17 10 -17 7 0 -10 182 -126
198 -126 23 0 -43 58 -74 66 -34 8 -64 32 -64 50 0 7 -9 18 -19 23 -17 9 -18
8 -13 -12z"/>
<path d="M2534 1216 c30 -29 56 -60 59 -67 4 -11 6 -11 6 1 1 15 -97 120 -111
120 -4 0 17 -24 46 -54z"/>
<path d="M0 1106 l0 -46 44 0 c25 0 48 5 51 10 13 20 -6 46 -43 60 -20 8 -40
16 -44 18 -5 2 -8 -17 -8 -42z"/>
</g>
</svg>
